<mxfile host="65bd71144e">
    <diagram id="-4RJY9b7GZO-taqIWBtN" name="Page-1">
        <mxGraphModel dx="1659" dy="714" grid="1" gridSize="10" guides="1" tooltips="1" connect="1" arrows="1" fold="1" page="1" pageScale="1" pageWidth="800" pageHeight="500" math="0" shadow="0">
            <root>
                <mxCell id="0"/>
                <mxCell id="1" parent="0"/>
                <mxCell id="2" value="nodeJs process" style="swimlane;whiteSpace=wrap;html=1;" vertex="1" parent="1">
                    <mxGeometry x="30" y="20" width="740" height="480" as="geometry"/>
                </mxCell>
                <mxCell id="3" value="Single thread (sequence of instructions)" style="swimlane;whiteSpace=wrap;html=1;" vertex="1" parent="2">
                    <mxGeometry x="20" y="40" width="480" height="420" as="geometry"/>
                </mxCell>
                <mxCell id="9" value="Initialize program" style="rounded=0;whiteSpace=wrap;html=1;" vertex="1" parent="3">
                    <mxGeometry x="60" y="50" width="370" height="30" as="geometry"/>
                </mxCell>
                <mxCell id="10" value="Execute top-level code" style="rounded=0;whiteSpace=wrap;html=1;" vertex="1" parent="3">
                    <mxGeometry x="60" y="110" width="370" height="30" as="geometry"/>
                </mxCell>
                <mxCell id="11" value="Require modules" style="rounded=0;whiteSpace=wrap;html=1;" vertex="1" parent="3">
                    <mxGeometry x="60" y="175" width="370" height="30" as="geometry"/>
                </mxCell>
                <mxCell id="12" value="Register event callbacks" style="rounded=0;whiteSpace=wrap;html=1;" vertex="1" parent="3">
                    <mxGeometry x="60" y="240" width="370" height="30" as="geometry"/>
                </mxCell>
                <mxCell id="13" value="Start Event Loop" style="swimlane;whiteSpace=wrap;html=1;" vertex="1" parent="3">
                    <mxGeometry x="60" y="300" width="370" height="100" as="geometry"/>
                </mxCell>
                <mxCell id="14" value="" style="shape=flexArrow;endArrow=classic;html=1;" edge="1" parent="3">
                    <mxGeometry width="50" height="50" relative="1" as="geometry">
                        <mxPoint x="440" y="350" as="sourcePoint"/>
                        <mxPoint x="520" y="260" as="targetPoint"/>
                    </mxGeometry>
                </mxCell>
                <mxCell id="15" value="" style="shape=singleArrow;direction=south;whiteSpace=wrap;html=1;" vertex="1" parent="3">
                    <mxGeometry x="240" y="80" width="20" height="30" as="geometry"/>
                </mxCell>
                <mxCell id="16" value="" style="shape=singleArrow;direction=south;whiteSpace=wrap;html=1;" vertex="1" parent="3">
                    <mxGeometry x="240" y="140" width="20" height="30" as="geometry"/>
                </mxCell>
                <mxCell id="17" value="" style="shape=singleArrow;direction=south;whiteSpace=wrap;html=1;" vertex="1" parent="3">
                    <mxGeometry x="240" y="205" width="20" height="30" as="geometry"/>
                </mxCell>
                <mxCell id="18" value="" style="shape=singleArrow;direction=south;whiteSpace=wrap;html=1;" vertex="1" parent="3">
                    <mxGeometry x="240" y="270" width="20" height="30" as="geometry"/>
                </mxCell>
                <mxCell id="4" value="Thread Pool" style="swimlane;whiteSpace=wrap;html=1;" vertex="1" parent="2">
                    <mxGeometry x="550" y="220" width="140" height="135" as="geometry"/>
                </mxCell>
                <mxCell id="5" value="&lt;font style=&quot;font-size: 10px;&quot;&gt;Thread #1&lt;/font&gt;" style="rounded=0;whiteSpace=wrap;html=1;" vertex="1" parent="4">
                    <mxGeometry x="20" y="37.5" width="40" height="32.5" as="geometry"/>
                </mxCell>
                <mxCell id="6" value="#2" style="rounded=0;whiteSpace=wrap;html=1;" vertex="1" parent="4">
                    <mxGeometry x="80" y="37.5" width="40" height="32.5" as="geometry"/>
                </mxCell>
                <mxCell id="7" value="#3" style="rounded=0;whiteSpace=wrap;html=1;" vertex="1" parent="4">
                    <mxGeometry x="20" y="85" width="40" height="32.5" as="geometry"/>
                </mxCell>
                <mxCell id="8" value="#4" style="rounded=0;whiteSpace=wrap;html=1;" vertex="1" parent="4">
                    <mxGeometry x="80" y="85" width="40" height="32.5" as="geometry"/>
                </mxCell>
            </root>
        </mxGraphModel>
    </diagram>
</mxfile>